<?xml version="1.0" encoding="UTF-8" standalone="no"?>
<!-- Created with Inkscape (http://www.inkscape.org/) -->

<svg
   version="1.1"
   id="svg1"
   width="2941.4399"
   height="2519.04"
   viewBox="0 0 2941.4399 2519.04"
   sodipodi:docname="icon-black.png"
   xmlns:inkscape="http://www.inkscape.org/namespaces/inkscape"
   xmlns:sodipodi="http://sodipodi.sourceforge.net/DTD/sodipodi-0.dtd"
   xmlns="http://www.w3.org/2000/svg"
   xmlns:svg="http://www.w3.org/2000/svg">
  <defs
     id="defs1" />
  <sodipodi:namedview
     id="namedview1"
     pagecolor="#ffffff"
     bordercolor="#000000"
     borderopacity="0.25"
     inkscape:showpageshadow="2"
     inkscape:pageopacity="0.0"
     inkscape:pagecheckerboard="0"
     inkscape:deskcolor="#d1d1d1"
     inkscape:export-bgcolor="#ffffff98">
    <inkscape:page
       x="0"
       y="0"
       width="2941.4399"
       height="2519.04"
       id="page2"
       margin="0"
       bleed="0" />
  </sodipodi:namedview>
  <g
     inkscape:groupmode="layer"
     inkscape:label="Image"
     id="g1">
    <path
       style="fill:#000000"
       d="m 1578.24,2142.5857 c -104.5692,-7.2786 -268.3279,-23.3718 -293.76,-28.8687 -98.1444,-21.2133 -150.419,-37.4519 -198.5391,-61.6743 -26.8285,-13.5047 -53.6125,-29.1035 -59.52,-34.664 -5.9075,-5.5604 -15.4347,-13.016 -21.1716,-16.5678 -31.22685,-19.3334 -90.98651,-100.2645 -112.61355,-152.5099 -7.56247,-18.269 -17.17658,-39.9332 -21.36469,-48.1425 -7.08946,-13.8965 -12.27987,-37.4501 -41.71052,-189.2785 -17.30566,-89.2773 -25.10547,-206.9168 -24.95101,-376.32 0.17446,-191.3251 4.86174,-233.171 35.48572,-316.79999 15.27252,-41.70668 26.70816,-66.25459 38.21014,-82.02243 9.02803,-12.37634 16.41459,-24.63644 16.41459,-27.24466 0,-2.60823 -7.27742,-15.81013 -16.17206,-29.33757 -8.89463,-13.52744 -19.27615,-31.29425 -23.07005,-39.48181 -3.7939,-8.18756 -12.65298,-22.87556 -19.68684,-32.64 -7.03387,-9.76444 -18.51246,-28.12153 -25.50797,-40.79353 -6.99552,-12.672 -17.04648,-28.89137 -22.33547,-36.04305 -15.53744,-21.00944 -46.8276,-84.59369 -46.8276,-95.15764 0,-5.94243 5.08006,-14.80738 13.05599,-22.78331 17.118,-17.118 30.8194,-17.27837 49.21141,-0.576 15.68223,14.24152 58.72853,76.28609 74.25383,107.02538 5.73755,11.36004 15.05045,27.56662 20.69534,36.01462 5.6449,8.448 15.17778,26.592 21.18418,40.32 14.12745,32.28915 32.66835,65.28 36.68744,65.28 1.7353,0 11.50635,-3.60256 21.71344,-8.00569 10.2071,-4.40313 31.16208,-8.97828 46.56668,-10.16699 20.2135,-1.5598 28.8988,-3.87371 31.208,-8.31431 1.7599,-3.38415 7.8582,-22.56901 13.5518,-42.63301 18.4999,-65.19225 74.3313,-161.9181 106.8107,-185.04549 22.8825,-16.29378 64.2612,2.87989 64.2612,29.77676 0,14.03642 -6.0769,25.16857 -44.9313,82.30873 -16.4788,24.23408 -60.2903,109.33845 -68.5151,133.09139 l -6.86,19.81138 16.3872,18.58862 c 38.1597,43.28586 43.6499,65.52418 44.8802,181.78862 0.5476,51.74398 1.0953,95.37598 1.2173,96.95998 0.5667,7.3617 12.1588,1.692 17.4464,-8.5331 3.2461,-6.2772 18.8117,-28.5509 34.5903,-49.4972 63.699,-84.56118 161.9194,-157.30547 269.186,-199.36542 94.9515,-37.2311 136.2315,-44.87273 239.639,-44.3612 64.3725,0.31843 81.104,1.70925 119.2351,9.91149 88.9569,19.13518 167.8196,61.21114 234.8686,125.31035 37.7073,36.04842 80.8215,91.73081 89.5503,115.65508 2.697,7.392 12.2271,28.9139 21.178,47.8263 11.6339,24.5814 19.5664,49.7651 27.8199,88.32 10.7401,50.1714 11.5721,59.8269 11.9268,138.4137 0.3508,77.7291 -0.4924,89.0829 -10.5512,142.08 -10.3706,54.6401 -18.8257,79.8947 -54.6384,163.2 -8.3198,19.3529 -46.3093,75.6295 -69.6058,103.112 -18.323,21.6153 -60.7002,59.8519 -82.0274,74.0126 -14.3782,9.5469 -7.3523,17.2287 18.2003,19.8995 74.7977,7.8179 162.2091,67.1698 182.0572,123.6159 15.8141,44.9737 5.4681,94.51 -27.6744,132.5033 -17.3146,19.8489 -27.4207,27.0928 -62.4269,44.7466 -44.8689,22.6275 -74.5316,30.7718 -152.1521,41.7756 -51.7842,7.3411 -330.7004,11.0612 -410.88,5.4802 z m 439.68,-89.6184 c 48.0044,-9.2475 107.672,-32.5691 127.1669,-49.7042 31.6814,-27.8466 30.395,-60.0657 -3.693,-92.4922 -36.7261,-34.9361 -69.922,-44.3165 -157.3144,-44.4537 -91.5959,-0.1437 -176.1764,-8.2356 -339.8293,-32.5119 -120.3425,-17.8517 -135.4425,-21.1713 -203.302,-44.6947 -149.0518,-51.6687 -244.9881,-142.1378 -279.2458,-263.3327 -10.1233,-35.8134 -30.0625,-142.1799 -35.1554,-187.5379 -1.66,-14.784 -3.1331,-121.92 -3.2736,-238.08 -0.2349,-194.22861 -0.8215,-212.89219 -7.3,-232.25854 -4.2953,-12.83977 -12.1907,-25.91193 -20.2302,-33.49414 -41.2114,-38.86732 -104.28568,-18.39739 -143.52544,46.57926 -27.41984,45.40419 -37.92527,89.0385 -56.00419,232.61342 -7.62161,60.5275 -5.28413,243.761 3.94339,309.12 3.27995,23.232 8.63543,72.48 11.90107,109.44 8.6138,97.4894 19.06558,154.3539 40.35006,219.5303 21.94148,67.1883 45.76387,109.3813 84.28211,149.2764 56.7362,58.7643 154.2064,105.3885 252.9509,120.9974 20.3934,3.2237 57.8149,9.1674 83.1589,13.2083 44.2492,7.0551 80.314,9.8782 270.72,21.1914 114.9898,6.8323 331.4978,4.8682 374.4,-3.3965 z m -144.5991,-301.752 c 84.3024,-17.3952 162.1317,-73.3547 223.1936,-160.4767 22.33,-31.8601 58.1125,-107.4787 66.8468,-141.2664 25.1494,-97.2873 23.1117,-237.2011 -4.6119,-316.6722 -40.4573,-115.9728 -117.2287,-204.17724 -220.7552,-253.63075 -59.8406,-28.58525 -102.7419,-38.58886 -175.9734,-41.03309 -97.0363,-3.23874 -168.6642,12.50582 -258.6608,56.85636 -158.9512,78.33147 -270.1428,220.64388 -297.8169,381.17118 -2.8399,16.4735 -3.805,48.6389 -2.5922,86.4 2.2721,70.7464 11.0709,107.7459 39.0738,164.3067 35.5449,71.794 84.0249,119.1988 162.4862,158.8823 43.9433,22.2253 73.6571,31.9598 76.3259,25.0051 2.4673,-6.4297 3.8308,-4.0896 -34.0217,-58.3914 -32.3859,-46.4597 -51.9389,-87.5559 -65.1334,-136.8963 -11.4959,-42.989 -12.3456,-135.6138 -1.6608,-181.0701 38.1486,-162.297 155.7911,-263.9888 305.7391,-264.2851 69.4188,-0.1371 119.9086,18.6481 165.3584,61.523 27.9902,26.4046 37.5977,40.9084 55.5181,83.8118 10.2664,24.5788 11.1856,30.5942 11.1355,72.8703 -0.049,41.1493 -1.2166,49.1617 -10.913,74.88 -19.3467,51.3141 -32.1943,72.4539 -62.9397,103.5631 -32.7196,33.1068 -71.4934,56.2219 -87.5484,52.1924 -11.1235,-2.7919 -21.7254,-18.0315 -18.4615,-26.5373 1.3221,-3.4452 12.2823,-12.2648 24.356,-19.5992 95.3475,-57.9206 127.2651,-185.0379 66.5301,-264.9679 -27.8948,-36.7108 -63.2278,-55.8636 -118.1174,-64.0274 -35.9103,-5.341 -76.4387,2.1824 -115.4943,21.4397 -41.4617,20.4436 -82.4667,64.9443 -108.2514,117.4799 -25.7762,52.5181 -32.6678,81.9418 -32.7854,139.9767 -0.1173,57.8934 6.688,86.9034 32.8794,140.16 18.3011,37.2128 23.3936,43.8711 66.0814,86.4 42.0291,41.8727 50.1089,48.0625 88.4922,67.7922 38.4862,19.7827 82.3228,34.1364 119.04,38.978 30.8832,4.0724 79.6556,1.9797 112.6809,-4.8349 z"
       id="path1" />
  </g>
</svg>
